# xmcd
#
# Track frame offsets:
#	150
#	11613
#	24426
#	40296
#	54974
#	65496
#	82864
#	97732
#	116555
#	129484
#	152326
#	167434
#	182311
#	197060
#	212526
#	227232
#	240782
#	254923
#	272551
#	293500
#
# Disc length: 4068 seconds
#
# Revision: 1
# Processed by: cddbd v1.5.1PL2 Copyright (c) Steve Scherf et al.
# Submitted via: audiograbber 1.83.01
#
DISCID=f30fe214
DTITLE=Diverse - Int. Country Music Festival
DYEAR=2005
DGENRE=Country
TTITLE0=Willie Nelson - On The Road Again
TTITLE1=Jonny Cash - Man In Black
TTITLE2=Lorrie Morgan - Five Minutes
TTITLE3=Suzanne Klee - Every Little Thing
TTITLE4=Ricky Van Shelton - From A Jack To A King
TTITLE5=John Black - Two Piña Coladas
TTITLE6=Alabama - Reckless
TTITLE7=Coal - Let's Build Us A Rocket
TTITLE8=Tammy Wynette - My Man
TTITLE9=Jessi Alexander - Unfulfilled
TTITLE10=The Bellamy Brothers - Dancin' Cowboys
TTITLE11=Tammy Cochran - So What
TTITLE12=Rodney Crowell - I Couldn't Leave You If I Tried
TTITLE13=Marco Gottardi - Take It, Don't Break It
TTITLE14=Rick Trevino - Bobbie Ann Mason
TTITLE15=Dolly Parton - Joshua
TTITLE16=Wade Hayes - On A Good Night
TTITLE17=Collin Raye - A Bible An A Bus Ticket Home
TTITLE18=Kris Kristofferson - To Beat The Devil
TTITLE19=Sunday Skifflers - Cakewalk
EXTD=
EXTT0=
EXTT1=
EXTT2=
EXTT3=
EXTT4=
EXTT5=
EXTT6=
EXTT7=
EXTT8=
EXTT9=
EXTT10=
EXTT11=
EXTT12=
EXTT13=
EXTT14=
EXTT15=
EXTT16=
EXTT17=
EXTT18=
EXTT19=
PLAYORDER=
